<svg width="1650" height="264" viewBox="0 0 1650 264" fill="none" xmlns="http://www.w3.org/2000/svg">
<path d="M71.4018 12.4269H43.5993V123.215C49.918 102.995 65.5043 93.9386 85.0924 87.8305C102.785 82.9861 115.633 74.3505 116.265 54.1306C116.475 46.1268 115.422 39.3868 113.105 34.1212C105.102 17.2712 89.0942 12.4269 71.4018 12.4269ZM0 12.2162V10.11H79.1949C109.735 10.11 143.225 15.3756 143.225 54.1306C143.225 73.9293 133.115 84.8818 113.527 89.3049C107.84 90.5686 102.153 91.6217 96.2555 92.6749C70.3486 97.3086 47.6012 102.785 43.5993 133.957V169.342C43.5993 173.133 44.0206 179.031 46.3374 182.19C48.8649 186.192 52.8668 187.245 57.5005 187.245V189.352C47.8118 188.72 38.1231 188.298 28.4343 188.298C23.59 188.298 19.1668 188.298 14.7437 188.509C10.3206 188.72 6.31874 189.141 2.73812 189.352V187.245C7.58249 187.245 11.795 186.192 14.3225 181.558C16.6393 177.978 16.6393 171.238 16.6393 167.025V36.2274C16.6393 23.59 16.2181 12.2162 0 12.2162Z" fill="black"/>
<path d="M133.286 147.859C133.286 121.109 157.508 110.367 185.521 105.312C172.673 102.785 164.037 95.2024 161.299 87.6199C159.825 83.8286 158.982 80.248 158.982 76.878C158.982 74.3505 158.772 67.8212 164.669 59.8174C170.566 51.8137 180.887 46.3374 195.42 46.3374C229.963 46.3374 258.608 58.343 261.346 93.0961C261.556 95.413 261.767 97.9405 261.767 100.257V147.648C261.767 167.657 260.714 187.035 276.3 187.035V189.352C247.234 189.352 234.807 181.558 234.807 154.599C227.014 176.714 210.164 189.352 184.257 189.562C183.625 189.562 182.993 189.562 182.572 189.562C150.768 189.562 133.286 173.765 133.286 147.859ZM160.457 149.754C160.457 171.027 169.513 184.086 190.786 184.086C215.219 184.086 234.807 169.974 234.807 130.798V104.68C208.69 104.68 160.457 104.47 160.457 149.754ZM161.299 77.7205C161.51 80.8799 162.142 84.0393 163.616 87.4092C169.513 99.4149 181.94 104.049 194.788 104.049C206.583 102.574 217.746 102.364 228.488 102.364H234.807C234.175 71.4018 225.118 49.2862 194.999 48.6543C177.517 48.6543 161.299 58.343 161.299 77.7205Z" fill="black"/>
<path d="M291.46 48.4437V46.3374C297.358 46.5481 303.255 46.7587 309.153 46.7587C312.944 46.7587 323.264 46.7587 335.059 46.1268V115.844C335.059 133.536 336.744 151.65 342.853 165.13C348.75 178.61 359.071 187.245 375.499 187.245C376.131 187.245 376.553 187.245 377.184 187.245C408.146 186.613 422.89 149.122 423.522 116.686V69.2955C423.311 54.973 420.362 48.4437 406.882 48.4437V46.3374C416.361 46.9693 423.101 46.9693 428.787 46.9693C436.37 46.9693 442.267 46.9693 450.903 46.3374V159.443C450.903 170.185 450.061 187.035 465.226 187.035V189.352C435.949 189.352 423.522 181.558 423.522 154.599V138.17C418.467 163.234 403.723 188.72 376.974 189.352C375.71 189.352 374.446 189.352 373.183 189.352C354.648 189.352 338.219 183.454 326.634 170.817C314.839 158.39 308.31 140.065 308.099 117.95V70.3487C307.889 55.3943 305.151 48.4437 291.46 48.4437Z" fill="black"/>
<path d="M510.818 188.509C500.708 188.509 490.598 188.72 480.488 189.352V187.245C494.178 187.245 496.916 180.295 497.127 165.13V39.5974C497.127 21.905 497.969 12.8481 483.858 11.795V9.68874C495.863 8.63561 513.134 5.05499 524.508 0V166.394C524.719 180.716 527.878 187.245 541.147 187.245V189.352C531.037 188.72 520.927 188.509 510.818 188.509Z" fill="black"/>
<path d="M561.441 144.91C558.071 136.064 556.386 126.585 556.386 116.265C556.386 76.878 584.4 46.3374 627.578 46.3374C671.177 46.3374 698.558 77.2993 698.558 117.529C698.558 158.6 670.966 189.352 626.946 189.352C594.51 189.352 570.92 171.027 561.441 144.91ZM584.821 102.153C584.189 107.419 583.978 112.052 583.978 116.475C583.978 143.435 591.982 187.035 627.788 187.035C663.805 187.035 670.966 144.067 670.966 116.897C670.966 89.9367 662.963 48.4437 627.367 48.4437C598.09 48.4437 586.927 77.0886 584.821 102.153Z" fill="black"/>
<path d="M897.689 189.352H807.12V187.245C821.443 187.245 823.76 179.452 823.76 163.234V32.4362C823.76 20.22 822.285 12.2162 809.858 12.2162V10.11H894.74C924.228 10.11 946.975 18.535 946.975 50.7605C946.975 82.3543 913.907 92.043 895.372 92.043C926.334 102.785 958.77 108.261 961.508 143.014C961.719 144.699 961.719 146.384 961.719 148.069C961.719 162.181 956.453 173.133 944.869 179.873C933.074 186.824 916.435 189.352 897.689 189.352ZM859.355 72.6655C855.775 68.2424 852.826 63.1874 850.72 57.0793V187.035H889.685C913.486 187.035 934.548 179.031 934.548 143.014C934.548 99.8361 888 106.997 859.355 72.6655ZM882.313 12.4269H850.72V46.5481C854.09 72.2443 871.361 83.4074 892.423 90.7792C912.643 89.7261 920.015 74.1399 920.015 50.7605C920.015 21.0625 902.533 12.4269 882.313 12.4269Z" fill="black"/>
<path d="M1003.98 149.544C1003.98 170.185 1012.2 183.875 1034.31 183.875C1066.12 183.875 1078.33 160.707 1078.33 130.798V104.68C1075.6 105.312 1073.07 105.734 1070.54 105.944L1062.96 106.787C1059.17 106.997 1055.38 107.208 1051.8 107.419C1048.21 107.629 1044.63 107.419 1041.26 107.208C1018.94 112.052 1003.98 124.69 1003.98 149.544ZM1027.78 189.352C1001.25 189.352 976.813 179.031 976.813 147.859C976.813 119.214 1004.83 109.525 1028.84 105.312H1029.05C1018.1 103.206 1008.62 97.3086 1004.62 86.5667C1002.72 82.1436 1002.3 77.7205 1002.93 72.8761C1005.25 54.9731 1021.89 46.1268 1038.95 46.1268C1069.28 46.1268 1100.03 54.9731 1104.66 90.358C1096.03 93.3067 1086.97 95.413 1078.12 97.098C1076.65 71.4018 1069.28 49.2862 1038.53 48.4437C1025.26 48.8649 1011.57 53.9199 1006.72 67.3999C1005.25 70.9805 1004.83 74.7718 1005.04 78.3524C1005.46 86.1455 1009.46 92.6749 1015.78 97.098C1018.94 99.6255 1022.94 101.521 1027.78 102.574C1031.58 103.627 1035.79 104.47 1040.63 104.891C1045.27 105.312 1050.32 105.312 1055.59 105.102C1072.23 104.68 1089.29 100.889 1105.08 95.6236C1137.52 84.8818 1169.32 66.1362 1181.96 32.4362V95.2024C1185.33 73.0868 1196.49 56.658 1218.61 49.0756C1225.98 46.7587 1234.62 45.7056 1244.52 46.3374L1243.89 73.9293C1237.36 72.4549 1231.04 71.823 1224.72 71.823C1201.13 71.823 1181.96 83.1968 1181.96 109.525V166.183C1182.17 169.763 1182.38 172.923 1182.8 175.45C1183.44 184.086 1189.33 187.035 1197.55 187.035V189.141C1187.02 188.509 1176.27 188.298 1165.74 188.298C1156.9 188.298 1147.84 188.72 1138.99 189.141V187.035C1147.84 187.035 1152.68 184.297 1154.16 174.818C1154.37 172.08 1154.58 168.921 1154.58 165.13V108.893C1154.58 104.47 1154.58 100.679 1154.58 97.3086C1154.37 94.1492 1153.95 91.4111 1153.32 89.0942C1152.47 86.7774 1151.21 85.0924 1149.53 83.618C1147.84 82.3543 1145.31 81.5118 1142.15 81.3011C1130.78 88.4624 1117.72 93.9386 1105.08 97.9405C1105.08 98.9936 1105.08 100.257 1105.29 101.31C1105.29 102.364 1105.29 104.47 1105.29 107.629V147.437C1105.29 152.492 1105.29 157.337 1105.5 162.181C1105.5 172.08 1106.77 187.035 1119.83 187.035V189.141C1095.18 189.141 1078.33 184.086 1078.33 154.599C1069.91 177.978 1052.22 188.93 1027.78 189.352Z" fill="black"/>
<path d="M1254.29 189.352V187.245C1267.98 187.245 1270.72 180.295 1270.93 165.13V76.2461C1270.93 58.5537 1271.77 49.4968 1257.66 48.4437V46.3374C1269.66 45.2843 1286.93 41.7037 1298.31 36.6487V94.9917C1299.99 81.3011 1305.68 68.453 1316 59.3962C1326.11 50.3393 1339.8 46.1268 1355.18 46.1268C1356.86 46.1268 1358.76 46.1268 1360.65 46.3374L1360.23 73.7186C1353.7 72.2443 1347.17 71.6124 1341.06 71.6124C1316.63 71.6124 1298.31 83.618 1298.31 109.525V166.394C1298.52 180.716 1301.68 187.245 1314.95 187.245V189.352C1300.83 188.72 1293.25 188.298 1285.67 188.298C1277.46 188.298 1270.08 188.72 1255.55 189.352H1254.29Z" fill="black"/>
<path d="M1375.35 144.91C1371.98 136.064 1370.29 126.585 1370.29 116.265C1370.29 76.878 1398.31 46.3374 1441.49 46.3374C1485.09 46.3374 1512.47 77.2993 1512.47 117.529C1512.47 158.6 1484.87 189.352 1440.85 189.352C1408.42 189.352 1384.83 171.027 1375.35 144.91ZM1398.73 102.153C1398.1 107.419 1397.89 112.052 1397.89 116.475C1397.89 143.435 1405.89 187.035 1441.7 187.035C1477.71 187.035 1484.87 144.067 1484.87 116.897C1484.87 89.9367 1476.87 48.4437 1441.28 48.4437C1412 48.4437 1400.84 77.0886 1398.73 102.153Z" fill="black"/>
<path d="M1553.76 186.192C1545.34 184.297 1536.7 180.927 1527.65 176.293L1536.28 145.331H1537.33C1540.07 170.395 1558.19 187.245 1583.67 187.245C1604.73 187.245 1617.16 177.767 1622.22 167.868C1624.53 163.024 1625.8 158.39 1625.8 153.967C1625.8 152.914 1625.59 150.807 1625.38 147.437C1624.95 144.278 1623.06 141.119 1619.48 137.959C1606.42 126.585 1565.98 127.639 1545.13 111.42C1536.7 104.891 1532.91 95.8342 1532.91 86.7774C1532.91 86.1455 1531.86 80.8799 1536.91 71.4018C1539.23 66.768 1542.81 62.5555 1547.66 58.7643C1557.13 51.3924 1571.67 46.3374 1591.25 46.3374C1611.9 46.3374 1624.95 50.3393 1639.49 55.3943L1631.69 85.9349H1630.01C1627.27 64.0299 1613.58 48.2331 1592.94 48.2331C1574.19 48.2331 1562.19 56.2368 1557.34 64.4511C1555.03 68.453 1553.97 72.4549 1553.97 76.2461C1553.97 77.2993 1554.18 79.1949 1554.61 82.1436C1555.03 85.0924 1557.34 88.0411 1561.35 90.9899C1575.46 101.1 1617.58 102.153 1636.33 116.265C1644.96 123.005 1649.6 133.115 1649.6 143.225C1649.6 143.857 1650.65 149.544 1645.39 160.285C1642.65 165.762 1638.65 170.606 1633.17 174.818C1622.01 183.454 1604.95 189.352 1581.36 189.352C1571.46 189.352 1562.19 188.298 1553.76 186.192Z" fill="black"/>
<path d="M1300.91 250.352L1311.24 225.131H1311.29L1321.62 250.352H1318.34L1315.47 243.111H1306.93L1304.02 250.352H1300.91ZM1307.96 240.535H1314.44L1312.51 235.708C1312.28 235.093 1312.05 234.487 1311.83 233.891C1311.62 233.294 1311.4 232.58 1311.18 231.748C1310.97 232.58 1310.76 233.294 1310.56 233.891C1310.36 234.469 1310.14 235.075 1309.88 235.708L1307.96 240.535ZM1342.33 250.352V225.945H1350.33C1352.53 225.945 1354.45 226.306 1356.08 227.03C1357.72 227.753 1359.08 228.711 1360.14 229.904C1361.21 231.097 1362.01 232.417 1362.53 233.863C1363.05 235.292 1363.32 236.72 1363.32 238.148C1363.32 239.576 1363.05 241.014 1362.53 242.46C1362.01 243.888 1361.21 245.199 1360.14 246.392C1359.08 247.586 1357.72 248.544 1356.08 249.267C1354.45 249.99 1352.53 250.352 1350.33 250.352H1342.33ZM1345.42 247.586H1350C1351.88 247.586 1353.46 247.296 1354.75 246.718C1356.03 246.121 1357.07 245.353 1357.87 244.413C1358.66 243.454 1359.23 242.424 1359.57 241.321C1359.94 240.218 1360.12 239.161 1360.12 238.148C1360.12 237.136 1359.94 236.078 1359.57 234.975C1359.23 233.873 1358.66 232.851 1357.87 231.911C1357.07 230.953 1356.03 230.184 1354.75 229.606C1353.46 229.009 1351.88 228.711 1350 228.711H1345.42V247.586ZM1391.09 251.165L1381.27 225.945H1384.53L1390.28 240.643C1390.46 241.113 1390.62 241.565 1390.76 241.999C1390.93 242.415 1391.08 242.903 1391.22 243.463C1391.37 242.903 1391.51 242.415 1391.66 241.999C1391.82 241.565 1391.99 241.113 1392.17 240.643L1397.9 225.945H1400.96L1391.14 251.165H1391.09ZM1431.64 250.84C1429.88 250.84 1428.23 250.514 1426.67 249.863C1425.14 249.195 1423.78 248.282 1422.61 247.125C1421.45 245.967 1420.54 244.621 1419.87 243.084C1419.22 241.547 1418.89 239.902 1418.89 238.148C1418.89 236.395 1419.22 234.749 1419.87 233.213C1420.54 231.676 1421.45 230.329 1422.61 229.172C1423.78 228.015 1425.14 227.111 1426.67 226.46C1428.23 225.791 1429.88 225.457 1431.64 225.457C1433.41 225.457 1435.06 225.791 1436.6 226.46C1438.14 227.111 1439.48 228.015 1440.64 229.172C1441.82 230.329 1442.73 231.676 1443.38 233.213C1444.05 234.749 1444.38 236.395 1444.38 238.148C1444.38 239.902 1444.05 241.547 1443.38 243.084C1442.73 244.621 1441.82 245.967 1440.64 247.125C1439.48 248.282 1438.14 249.195 1436.6 249.863C1435.06 250.514 1433.41 250.84 1431.64 250.84ZM1431.64 247.911C1433.43 247.911 1435.04 247.477 1436.49 246.609C1437.94 245.723 1439.08 244.539 1439.91 243.057C1440.76 241.574 1441.18 239.938 1441.18 238.148C1441.18 236.34 1440.76 234.704 1439.91 233.24C1439.08 231.757 1437.94 230.582 1436.49 229.714C1435.04 228.828 1433.43 228.385 1431.64 228.385C1429.85 228.385 1428.23 228.828 1426.78 229.714C1425.35 230.582 1424.22 231.757 1423.37 233.24C1422.52 234.704 1422.09 236.34 1422.09 238.148C1422.09 239.938 1422.52 241.574 1423.37 243.057C1424.22 244.539 1425.35 245.723 1426.78 246.609C1428.23 247.477 1429.85 247.911 1431.64 247.911ZM1477.16 250.84C1475.38 250.84 1473.73 250.514 1472.19 249.863C1470.66 249.195 1469.3 248.282 1468.13 247.125C1466.97 245.949 1466.06 244.602 1465.41 243.084C1464.76 241.547 1464.44 239.902 1464.44 238.148C1464.44 236.395 1464.76 234.758 1465.41 233.24C1466.08 231.703 1467 230.356 1468.15 229.199C1469.33 228.024 1470.68 227.111 1472.22 226.46C1473.76 225.791 1475.41 225.457 1477.18 225.457C1478.92 225.457 1480.55 225.782 1482.06 226.433C1483.58 227.066 1484.92 227.943 1486.08 229.063L1485.18 232.806C1484.35 231.468 1483.23 230.401 1481.82 229.606C1480.43 228.792 1478.88 228.385 1477.18 228.385C1475.39 228.385 1473.78 228.828 1472.33 229.714C1470.9 230.582 1469.76 231.757 1468.91 233.24C1468.06 234.704 1467.64 236.34 1467.64 238.148C1467.64 239.92 1468.05 241.547 1468.88 243.03C1469.73 244.512 1470.87 245.696 1472.3 246.582C1473.75 247.468 1475.37 247.911 1477.16 247.911C1478.17 247.911 1479.13 247.793 1480.03 247.558C1480.95 247.305 1481.79 246.953 1482.55 246.501V240.101H1475.83V237.335H1485.54V248.074C1484.43 248.996 1483.15 249.692 1481.68 250.162C1480.24 250.614 1478.73 250.84 1477.16 250.84ZM1505.56 250.352L1515.9 225.131H1515.95L1526.28 250.352H1523L1520.13 243.111H1511.59L1508.68 250.352H1505.56ZM1512.62 240.535H1519.1L1517.17 235.708C1516.94 235.093 1516.71 234.487 1516.49 233.891C1516.28 233.294 1516.06 232.58 1515.84 231.748C1515.63 232.58 1515.42 233.294 1515.22 233.891C1515.02 234.469 1514.79 235.075 1514.54 235.708L1512.62 240.535ZM1546.98 250.352V225.945H1554.98C1557.19 225.945 1559.11 226.306 1560.73 227.03C1562.38 227.753 1563.74 228.711 1564.8 229.904C1565.87 231.097 1566.66 232.417 1567.19 233.863C1567.71 235.292 1567.97 236.72 1567.97 238.148C1567.97 239.576 1567.71 241.014 1567.19 242.46C1566.66 243.888 1565.87 245.199 1564.8 246.392C1563.74 247.586 1562.38 248.544 1560.73 249.267C1559.11 249.99 1557.19 250.352 1554.98 250.352H1546.98ZM1550.08 247.586H1554.66C1556.54 247.586 1558.12 247.296 1559.41 246.718C1560.69 246.121 1561.73 245.353 1562.52 244.413C1563.32 243.454 1563.89 242.424 1564.23 241.321C1564.59 240.218 1564.77 239.161 1564.77 238.148C1564.77 237.136 1564.59 236.078 1564.23 234.975C1563.89 233.873 1563.32 232.851 1562.52 231.911C1561.73 230.953 1560.69 230.184 1559.41 229.606C1558.12 229.009 1556.54 228.711 1554.66 228.711H1550.08V247.586ZM1600.78 250.84C1599.03 250.84 1597.37 250.514 1595.82 249.863C1594.28 249.195 1592.92 248.282 1591.75 247.125C1590.59 245.967 1589.68 244.621 1589.01 243.084C1588.36 241.547 1588.03 239.902 1588.03 238.148C1588.03 236.395 1588.36 234.749 1589.01 233.213C1589.68 231.676 1590.59 230.329 1591.75 229.172C1592.92 228.015 1594.28 227.111 1595.82 226.46C1597.37 225.791 1599.03 225.457 1600.78 225.457C1602.55 225.457 1604.21 225.791 1605.74 226.46C1607.28 227.111 1608.63 228.015 1609.78 229.172C1610.96 230.329 1611.87 231.676 1612.52 233.213C1613.19 234.749 1613.53 236.395 1613.53 238.148C1613.53 239.902 1613.19 241.547 1612.52 243.084C1611.87 244.621 1610.96 245.967 1609.78 247.125C1608.63 248.282 1607.28 249.195 1605.74 249.863C1604.21 250.514 1602.55 250.84 1600.78 250.84ZM1600.78 247.911C1602.57 247.911 1604.19 247.477 1605.63 246.609C1607.08 245.723 1608.22 244.539 1609.05 243.057C1609.9 241.574 1610.33 239.938 1610.33 238.148C1610.33 236.34 1609.9 234.704 1609.05 233.24C1608.22 231.757 1607.08 230.582 1605.63 229.714C1604.19 228.828 1602.57 228.385 1600.78 228.385C1598.99 228.385 1597.37 228.828 1595.92 229.714C1594.5 230.582 1593.36 231.757 1592.51 233.24C1591.66 234.704 1591.23 236.34 1591.23 238.148C1591.23 239.938 1591.66 241.574 1592.51 243.057C1593.36 244.539 1594.5 245.723 1595.92 246.609C1597.37 247.477 1598.99 247.911 1600.78 247.911ZM1640.1 250.677C1638.65 250.677 1637.34 250.388 1636.16 249.809C1635.01 249.231 1634.09 248.526 1633.4 247.694L1634.29 243.952C1634.8 244.964 1635.56 245.877 1636.57 246.691C1637.58 247.504 1638.79 247.911 1640.21 247.911C1641.49 247.911 1642.55 247.504 1643.38 246.691C1644.23 245.877 1644.65 244.874 1644.65 243.68C1644.65 242.813 1644.44 242.099 1644.03 241.538C1643.61 240.978 1643.14 240.535 1642.62 240.209C1642.09 239.884 1641.68 239.649 1641.37 239.504L1638.39 237.986C1637.92 237.732 1637.33 237.38 1636.63 236.928C1635.94 236.476 1635.33 235.852 1634.81 235.057C1634.28 234.261 1634.02 233.231 1634.02 231.965C1634.02 230.736 1634.3 229.642 1634.86 228.684C1635.44 227.726 1636.24 226.975 1637.25 226.433C1638.28 225.891 1639.45 225.619 1640.77 225.619C1642.08 225.619 1643.22 225.854 1644.22 226.324C1645.21 226.776 1645.99 227.247 1646.55 227.735L1645.66 231.477C1645.2 230.718 1644.54 230.004 1643.65 229.335C1642.76 228.666 1641.76 228.331 1640.64 228.331C1639.55 228.331 1638.69 228.657 1638.04 229.308C1637.38 229.94 1637.06 230.727 1637.06 231.667C1637.06 232.39 1637.22 232.987 1637.55 233.457C1637.89 233.927 1638.27 234.297 1638.69 234.569C1639.12 234.84 1639.47 235.048 1639.74 235.192L1642.78 236.711C1643.14 236.892 1643.59 237.145 1644.14 237.47C1644.7 237.796 1645.25 238.23 1645.79 238.772C1646.33 239.296 1646.79 239.947 1647.15 240.724C1647.51 241.484 1647.69 242.406 1647.69 243.491C1647.69 244.883 1647.36 246.121 1646.69 247.206C1646.04 248.291 1645.14 249.14 1644 249.755C1642.86 250.37 1641.56 250.677 1640.1 250.677Z" fill="black"/>
</svg>
