<svg width="237" height="374" viewBox="0 0 237 374" fill="none" xmlns="http://www.w3.org/2000/svg">
<path d="M104.484 58.0753H76.6818V168.864C83.0005 148.644 98.5868 139.587 118.175 133.479C135.867 128.635 148.715 119.999 149.347 99.779C149.558 91.7752 148.505 85.0352 146.188 79.7696C138.184 62.9196 122.177 58.0753 104.484 58.0753ZM33.0825 57.8646V55.7584H112.277C142.818 55.7584 176.307 61.024 176.307 99.779C176.307 119.578 166.197 130.53 146.609 134.953C140.922 136.217 135.235 137.27 129.338 138.323C103.431 142.957 80.6837 148.433 76.6818 179.606V214.991C76.6818 218.782 77.103 224.679 79.4199 227.839C81.9474 231.841 85.9493 232.894 90.583 232.894V235C80.8943 234.368 71.2056 233.947 61.5168 233.947C56.6725 233.947 52.2493 233.947 47.8262 234.158C43.4031 234.368 39.4012 234.789 35.8206 235V232.894C40.665 232.894 44.8775 231.841 47.405 227.207C49.7218 223.626 49.7218 216.886 49.7218 212.674V81.8758C49.7218 69.2384 49.3006 57.8646 33.0825 57.8646Z" fill="black"/>
<path d="M154.628 288H91.7631V286.538C101.705 286.538 103.313 281.129 103.313 269.871V179.082C103.313 170.603 102.289 165.047 93.6637 165.047V163.585H152.582C173.049 163.585 188.839 169.433 188.839 191.802C188.839 213.731 165.886 220.456 153.02 220.456C174.511 227.912 197.026 231.714 198.927 255.836C199.073 257.006 199.073 258.176 199.073 259.345C199.073 269.14 195.418 276.743 187.377 281.421C179.19 286.246 167.64 288 154.628 288ZM128.02 207.006C125.535 203.936 123.488 200.427 122.026 196.187V286.392H149.073C165.593 286.392 180.213 280.836 180.213 255.836C180.213 225.866 147.903 230.836 128.02 207.006ZM143.956 165.193H122.026V188.878C124.365 206.714 136.354 214.462 150.973 219.579C165.008 218.848 170.125 208.03 170.125 191.802C170.125 171.188 157.991 165.193 143.956 165.193Z" fill="black"/>
<path d="M29.8153 330L36.4899 313.708H36.5249L43.1995 330H41.0797L39.2228 325.323H33.7044L31.83 330H29.8153ZM34.3701 323.658H38.5571L37.3132 320.54C37.1614 320.143 37.0154 319.752 36.8753 319.366C36.7351 318.981 36.595 318.52 36.4548 317.982C36.3147 318.52 36.1804 318.981 36.0519 319.366C35.9234 319.74 35.7775 320.131 35.614 320.54L34.3701 323.658ZM51.7792 330V314.233H56.9472C58.372 314.233 59.61 314.467 60.6611 314.934C61.7239 315.401 62.5998 316.02 63.2889 316.791C63.978 317.562 64.4918 318.414 64.8305 319.349C65.1692 320.271 65.3386 321.194 65.3386 322.117C65.3386 323.039 65.1692 323.968 64.8305 324.902C64.4918 325.825 63.978 326.671 63.2889 327.442C62.5998 328.213 61.7239 328.832 60.6611 329.299C59.61 329.766 58.372 330 56.9472 330H51.7792ZM53.7764 328.213H56.737C57.9516 328.213 58.9735 328.026 59.8027 327.653C60.6319 327.267 61.3035 326.771 61.8173 326.163C62.3312 325.544 62.6991 324.879 62.921 324.166C63.1546 323.454 63.2714 322.771 63.2714 322.117C63.2714 321.463 63.1546 320.779 62.921 320.067C62.6991 319.355 62.3312 318.695 61.8173 318.087C61.3035 317.468 60.6319 316.972 59.8027 316.598C58.9735 316.213 57.9516 316.02 56.737 316.02H53.7764V328.213ZM78.4868 330.526L72.1451 314.233H74.2474L77.9613 323.728C78.0781 324.032 78.1832 324.324 78.2766 324.604C78.3817 324.873 78.481 325.188 78.5744 325.55C78.6679 325.188 78.7613 324.873 78.8547 324.604C78.9598 324.324 79.0708 324.032 79.1876 323.728L82.884 314.233H84.8636L78.5219 330.526H78.4868ZM99.8874 330.315C98.7546 330.315 97.6859 330.105 96.6815 329.685C95.6888 329.253 94.8129 328.663 94.0538 327.915C93.3063 327.168 92.7165 326.298 92.2844 325.305C91.864 324.312 91.6537 323.25 91.6537 322.117C91.6537 320.984 91.864 319.921 92.2844 318.928C92.7165 317.936 93.3063 317.066 94.0538 316.318C94.8129 315.571 95.6888 314.987 96.6815 314.566C97.6859 314.134 98.7546 313.918 99.8874 313.918C101.032 313.918 102.101 314.134 103.093 314.566C104.086 314.987 104.956 315.571 105.704 316.318C106.463 317.066 107.052 317.936 107.473 318.928C107.905 319.921 108.121 320.984 108.121 322.117C108.121 323.25 107.905 324.312 107.473 325.305C107.052 326.298 106.463 327.168 105.704 327.915C104.956 328.663 104.086 329.253 103.093 329.685C102.101 330.105 101.032 330.315 99.8874 330.315ZM99.8874 328.423C101.044 328.423 102.089 328.143 103.023 327.582C103.958 327.01 104.693 326.245 105.231 325.288C105.779 324.33 106.054 323.273 106.054 322.117C106.054 320.949 105.779 319.892 105.231 318.946C104.693 317.988 103.958 317.229 103.023 316.668C102.089 316.096 101.044 315.81 99.8874 315.81C98.7312 315.81 97.6859 316.096 96.7516 316.668C95.829 317.229 95.0932 317.988 94.5443 318.946C93.9954 319.892 93.7209 320.949 93.7209 322.117C93.7209 323.273 93.9954 324.33 94.5443 325.288C95.0932 326.245 95.829 327.01 96.7516 327.582C97.6859 328.143 98.7312 328.423 99.8874 328.423ZM124.499 330.315C123.355 330.315 122.286 330.105 121.293 329.685C120.301 329.253 119.425 328.663 118.666 327.915C117.918 327.156 117.334 326.286 116.914 325.305C116.493 324.312 116.283 323.25 116.283 322.117C116.283 320.984 116.493 319.927 116.914 318.946C117.346 317.953 117.936 317.083 118.683 316.336C119.442 315.576 120.318 314.987 121.311 314.566C122.304 314.134 123.372 313.918 124.517 313.918C125.638 313.918 126.689 314.128 127.67 314.549C128.651 314.957 129.515 315.524 130.263 316.248L129.685 318.666C129.148 317.801 128.424 317.112 127.513 316.598C126.613 316.073 125.615 315.81 124.517 315.81C123.361 315.81 122.315 316.096 121.381 316.668C120.458 317.229 119.723 317.988 119.174 318.946C118.625 319.892 118.35 320.949 118.35 322.117C118.35 323.261 118.619 324.312 119.156 325.27C119.705 326.228 120.441 326.993 121.364 327.565C122.298 328.137 123.343 328.423 124.499 328.423C125.153 328.423 125.772 328.347 126.356 328.196C126.952 328.032 127.495 327.804 127.986 327.512V323.378H123.641V321.591H129.913V328.528C129.2 329.124 128.371 329.574 127.425 329.877C126.491 330.169 125.515 330.315 124.499 330.315ZM138.058 330L144.733 313.708H144.768L151.442 330H149.323L147.466 325.323H141.947L140.073 330H138.058ZM142.613 323.658H146.8L145.556 320.54C145.404 320.143 145.258 319.752 145.118 319.366C144.978 318.981 144.838 318.52 144.698 317.982C144.558 318.52 144.423 318.981 144.295 319.366C144.166 319.74 144.02 320.131 143.857 320.54L142.613 323.658ZM160.022 330V314.233H165.19C166.615 314.233 167.853 314.467 168.904 314.934C169.967 315.401 170.843 316.02 171.532 316.791C172.221 317.562 172.735 318.414 173.073 319.349C173.412 320.271 173.581 321.194 173.581 322.117C173.581 323.039 173.412 323.968 173.073 324.902C172.735 325.825 172.221 326.671 171.532 327.442C170.843 328.213 169.967 328.832 168.904 329.299C167.853 329.766 166.615 330 165.19 330H160.022ZM162.019 328.213H164.98C166.195 328.213 167.216 328.026 168.046 327.653C168.875 327.267 169.546 326.771 170.06 326.163C170.574 325.544 170.942 324.879 171.164 324.166C171.398 323.454 171.514 322.771 171.514 322.117C171.514 321.463 171.398 320.779 171.164 320.067C170.942 319.355 170.574 318.695 170.06 318.087C169.546 317.468 168.875 316.972 168.046 316.598C167.216 316.213 166.195 316.02 164.98 316.02H162.019V328.213ZM189.98 330.315C188.847 330.315 187.778 330.105 186.774 329.685C185.781 329.253 184.905 328.663 184.146 327.915C183.399 327.168 182.809 326.298 182.377 325.305C181.957 324.312 181.746 323.25 181.746 322.117C181.746 320.984 181.957 319.921 182.377 318.928C182.809 317.936 183.399 317.066 184.146 316.318C184.905 315.571 185.781 314.987 186.774 314.566C187.778 314.134 188.847 313.918 189.98 313.918C191.125 313.918 192.193 314.134 193.186 314.566C194.179 314.987 195.049 315.571 195.796 316.318C196.555 317.066 197.145 317.936 197.565 318.928C197.998 319.921 198.214 320.984 198.214 322.117C198.214 323.25 197.998 324.312 197.565 325.305C197.145 326.298 196.555 327.168 195.796 327.915C195.049 328.663 194.179 329.253 193.186 329.685C192.193 330.105 191.125 330.315 189.98 330.315ZM189.98 328.423C191.136 328.423 192.181 328.143 193.116 327.582C194.05 327.01 194.786 326.245 195.323 325.288C195.872 324.33 196.146 323.273 196.146 322.117C196.146 320.949 195.872 319.892 195.323 318.946C194.786 317.988 194.05 317.229 193.116 316.668C192.181 316.096 191.136 315.81 189.98 315.81C188.824 315.81 187.778 316.096 186.844 316.668C185.922 317.229 185.186 317.988 184.637 318.946C184.088 319.892 183.813 320.949 183.813 322.117C183.813 323.273 184.088 324.33 184.637 325.288C185.186 326.245 185.922 327.01 186.844 327.582C187.778 328.143 188.824 328.423 189.98 328.423ZM210.586 330.21C209.651 330.21 208.805 330.023 208.045 329.65C207.298 329.276 206.702 328.82 206.259 328.283L206.837 325.866C207.164 326.52 207.654 327.109 208.308 327.635C208.962 328.161 209.745 328.423 210.656 328.423C211.485 328.423 212.168 328.161 212.705 327.635C213.254 327.109 213.529 326.461 213.529 325.69C213.529 325.13 213.394 324.669 213.126 324.306C212.857 323.944 212.554 323.658 212.215 323.448C211.876 323.238 211.608 323.086 211.409 322.993L209.482 322.012C209.178 321.848 208.799 321.62 208.343 321.328C207.899 321.036 207.508 320.633 207.17 320.12C206.831 319.606 206.662 318.94 206.662 318.122C206.662 317.328 206.843 316.622 207.205 316.003C207.578 315.384 208.092 314.899 208.746 314.549C209.412 314.198 210.171 314.023 211.024 314.023C211.865 314.023 212.606 314.175 213.248 314.479C213.891 314.771 214.393 315.074 214.755 315.39L214.177 317.807C213.885 317.317 213.453 316.855 212.881 316.423C212.308 315.991 211.66 315.775 210.936 315.775C210.235 315.775 209.675 315.985 209.254 316.406C208.834 316.814 208.624 317.322 208.624 317.93C208.624 318.397 208.729 318.782 208.939 319.086C209.161 319.39 209.406 319.629 209.675 319.804C209.955 319.979 210.183 320.114 210.358 320.207L212.32 321.188C212.554 321.305 212.846 321.468 213.196 321.679C213.558 321.889 213.914 322.169 214.265 322.52C214.615 322.858 214.907 323.279 215.14 323.781C215.374 324.271 215.491 324.867 215.491 325.568C215.491 326.467 215.275 327.267 214.843 327.968C214.422 328.669 213.844 329.218 213.108 329.615C212.373 330.012 211.532 330.21 210.586 330.21Z" fill="black"/>
<path d="M236.5 22H0.5V119M0.5 373H236.5V288" stroke="black"/>
</svg>
