<svg width="1985" height="229" viewBox="0 0 1985 229" fill="none" xmlns="http://www.w3.org/2000/svg">
<path d="M85.915 14.9528H52.4613V148.26C60.0644 123.93 78.8187 113.033 102.388 105.683C123.677 99.854 139.137 89.4631 139.897 65.1332C140.15 55.5026 138.883 47.3926 136.095 41.0567C126.465 20.7818 107.204 14.9528 85.915 14.9528ZM0 14.6993V12.165H95.2921C132.04 12.165 172.337 18.5009 172.337 65.1332C172.337 88.9562 160.172 102.135 136.602 107.457C129.759 108.978 122.917 110.245 115.82 111.512C84.6478 117.088 57.2766 123.677 52.4613 161.186V203.763C52.4613 208.325 52.9682 215.421 55.756 219.223C58.7973 224.038 63.6125 225.305 69.1882 225.305V227.839C57.5301 227.079 45.872 226.572 34.2139 226.572C28.3849 226.572 23.0627 226.572 17.7406 226.826C12.4184 227.079 7.60309 227.586 3.29467 227.839V225.305C9.12371 225.305 14.1924 224.038 17.2337 218.462C20.0215 214.154 20.0215 206.044 20.0215 200.975V43.5911C20.0215 28.3849 19.5146 14.6993 0 14.6993Z" fill="#C0A879"/>
<path d="M160.378 177.912C160.378 145.726 189.523 132.801 223.23 126.718C207.77 123.677 197.379 114.553 194.085 105.43C192.311 100.868 191.297 96.5593 191.297 92.5043C191.297 89.4631 191.044 81.6065 198.14 71.976C205.236 62.3454 217.654 55.756 235.142 55.756C276.705 55.756 311.172 70.2019 314.467 112.019C314.721 114.807 314.974 117.848 314.974 120.636V177.659C314.974 201.735 313.707 225.052 332.461 225.052V227.839C297.487 227.839 282.534 218.462 282.534 186.022C273.157 212.633 252.882 227.839 221.709 228.093C220.949 228.093 220.189 228.093 219.682 228.093C181.413 228.093 160.378 209.085 160.378 177.912ZM193.071 180.193C193.071 205.79 203.969 221.503 229.566 221.503C258.965 221.503 282.534 204.523 282.534 157.384V125.958C251.108 125.958 193.071 125.704 193.071 180.193ZM194.085 93.5181C194.338 97.3196 195.099 101.121 196.873 105.176C203.969 119.622 218.922 125.198 234.381 125.198C248.574 123.424 262.006 123.17 274.931 123.17H282.534C281.774 85.915 270.876 59.3041 234.635 58.5438C213.599 58.5438 194.085 70.2019 194.085 93.5181Z" fill="#C0A879"/>
<path d="M350.703 58.2904V55.756C357.799 56.0095 364.895 56.2629 371.991 56.2629C376.553 56.2629 388.971 56.2629 403.164 55.5026V139.39C403.164 160.679 405.191 182.474 412.541 198.694C419.637 214.914 432.056 225.305 451.824 225.305C452.584 225.305 453.091 225.305 453.851 225.305C491.106 224.545 508.847 179.433 509.607 140.404V83.3806C509.354 66.1469 505.806 58.2904 489.586 58.2904V55.756C500.99 56.5163 509.1 56.5163 515.943 56.5163C525.067 56.5163 532.163 56.5163 542.554 55.756V191.851C542.554 204.777 541.54 225.052 559.788 225.052V227.839C524.56 227.839 509.607 218.462 509.607 186.022V166.254C503.525 196.413 485.784 227.079 453.598 227.839C452.077 227.839 450.557 227.839 449.036 227.839C426.734 227.839 406.965 220.743 393.026 205.537C378.834 190.584 370.978 168.535 370.724 141.924V84.6478C370.471 66.6538 367.176 58.2904 350.703 58.2904Z" fill="#C0A879"/>
<path d="M614.647 226.826C602.482 226.826 590.317 227.079 578.152 227.839V225.305C594.625 225.305 597.92 216.942 598.173 198.694V47.6461C598.173 26.3574 599.187 15.4596 582.207 14.1924V11.6581C596.653 10.3909 617.435 6.08247 631.12 0V200.215C631.374 217.448 635.175 225.305 651.142 225.305V227.839C638.977 227.079 626.812 226.826 614.647 226.826Z" fill="#C0A879"/>
<path d="M675.561 174.364C671.506 163.72 669.478 152.315 669.478 139.897C669.478 92.5043 703.185 55.756 755.14 55.756C807.601 55.756 840.548 93.0112 840.548 141.418C840.548 190.838 807.348 227.839 754.379 227.839C715.35 227.839 686.965 205.79 675.561 174.364ZM703.692 122.917C702.932 129.253 702.678 134.828 702.678 140.15C702.678 172.59 712.309 225.052 755.393 225.052C798.731 225.052 807.348 173.351 807.348 140.657C807.348 108.217 797.717 58.2904 754.886 58.2904C719.659 58.2904 706.226 92.7577 703.692 122.917Z" fill="#C0A879"/>
<path d="M1080.15 227.839H971.176V225.305C988.41 225.305 991.198 215.928 991.198 196.413V39.0292C991.198 24.3299 989.424 14.6993 974.471 14.6993V12.165H1076.61C1112.09 12.165 1139.46 22.3024 1139.46 61.0782C1139.46 99.0937 1099.67 110.752 1077.37 110.752C1114.62 123.677 1153.65 130.266 1156.95 172.083C1157.2 174.111 1157.2 176.138 1157.2 178.166C1157.2 195.146 1150.86 208.325 1136.92 216.435C1122.73 224.798 1102.71 227.839 1080.15 227.839ZM1034.03 87.4356C1029.72 82.1134 1026.17 76.0309 1023.64 68.6813V225.052H1070.52C1099.16 225.052 1124.51 215.421 1124.51 172.083C1124.51 120.129 1068.5 128.746 1034.03 87.4356ZM1061.65 14.9528H1023.64V56.0095C1027.69 86.9287 1048.47 100.361 1073.82 109.231C1098.15 107.964 1107.02 89.2096 1107.02 61.0782C1107.02 25.3437 1085.98 14.9528 1061.65 14.9528Z" fill="#C0A879"/>
<path d="M1208.05 179.94C1208.05 204.777 1217.94 221.25 1244.55 221.25C1282.82 221.25 1297.52 193.372 1297.52 157.384V125.958C1294.22 126.718 1291.18 127.225 1288.14 127.479L1279.02 128.492C1274.45 128.746 1269.89 128.999 1265.58 129.253C1261.28 129.506 1256.97 129.253 1252.91 128.999C1226.05 134.828 1208.05 150.034 1208.05 179.94ZM1236.69 227.839C1204.76 227.839 1175.36 215.421 1175.36 177.912C1175.36 143.445 1209.07 131.787 1237.96 126.718H1238.21C1225.03 124.184 1213.63 117.088 1208.81 104.162C1206.53 98.8402 1206.03 93.5181 1206.79 87.689C1209.57 66.1469 1229.6 55.5026 1250.12 55.5026C1286.62 55.5026 1323.62 66.1469 1329.2 108.724C1318.81 112.272 1307.91 114.807 1297.26 116.834C1295.49 85.915 1286.62 59.3041 1249.62 58.2904C1233.65 58.7973 1217.18 64.8797 1211.35 81.0997C1209.57 85.4081 1209.07 89.9699 1209.32 94.2784C1209.83 103.656 1214.64 111.512 1222.25 116.834C1226.05 119.875 1230.86 122.156 1236.69 123.424C1241.25 124.691 1246.32 125.704 1252.15 126.211C1257.73 126.718 1263.81 126.718 1270.15 126.465C1290.17 125.958 1310.7 121.396 1329.7 115.06C1368.73 102.135 1407 79.579 1422.21 39.0292V114.553C1426.26 87.9424 1439.7 68.1744 1466.31 59.0507C1475.18 56.2629 1485.57 54.9957 1497.48 55.756L1496.72 88.9562C1488.86 87.1821 1481.26 86.4218 1473.66 86.4218C1445.27 86.4218 1422.21 100.107 1422.21 131.787V199.961C1422.46 204.27 1422.72 208.071 1423.22 211.113C1423.98 221.503 1431.08 225.052 1440.96 225.052V227.586C1428.29 226.826 1415.37 226.572 1402.69 226.572C1392.05 226.572 1381.15 227.079 1370.51 227.586V225.052C1381.15 225.052 1386.98 221.757 1388.75 210.352C1389.01 207.058 1389.26 203.256 1389.26 198.694V131.027C1389.26 125.704 1389.26 121.143 1389.26 117.088C1389.01 113.286 1388.5 109.991 1387.74 107.204C1386.73 104.416 1385.21 102.388 1383.18 100.614C1381.15 99.0937 1378.11 98.0799 1374.31 97.8265C1360.62 106.443 1344.91 113.033 1329.7 117.848C1329.7 119.115 1329.7 120.636 1329.96 121.903C1329.96 123.17 1329.96 125.704 1329.96 129.506V177.406C1329.96 183.488 1329.96 189.317 1330.21 195.146C1330.21 207.058 1331.73 225.052 1347.44 225.052V227.586C1317.79 227.586 1297.52 221.503 1297.52 186.022C1287.38 214.154 1266.09 227.332 1236.69 227.839Z" fill="#C0A879"/>
<path d="M1509.23 227.839V225.305C1525.71 225.305 1529 216.942 1529.26 198.694V91.744C1529.26 70.4553 1530.27 59.5576 1513.29 58.2904V55.756C1527.73 54.4888 1548.52 50.1804 1562.2 44.0979V114.3C1564.23 97.8265 1571.07 82.3669 1583.49 71.4691C1595.66 60.5713 1612.13 55.5026 1630.63 55.5026C1632.66 55.5026 1634.94 55.5026 1637.22 55.756L1636.71 88.7028C1628.86 86.9287 1621 86.1684 1613.65 86.1684C1584.25 86.1684 1562.2 100.614 1562.2 131.787V200.215C1562.46 217.448 1566.26 225.305 1582.22 225.305V227.839C1565.24 227.079 1556.12 226.572 1547 226.572C1537.11 226.572 1528.24 227.079 1510.75 227.839H1509.23Z" fill="#C0A879"/>
<path d="M1654.9 174.364C1650.85 163.72 1648.82 152.315 1648.82 139.897C1648.82 92.5043 1682.53 55.756 1734.48 55.756C1786.94 55.756 1819.89 93.0112 1819.89 141.418C1819.89 190.838 1786.69 227.839 1733.72 227.839C1694.69 227.839 1666.31 205.79 1654.9 174.364ZM1683.04 122.917C1682.28 129.253 1682.02 134.828 1682.02 140.15C1682.02 172.59 1691.65 225.052 1734.74 225.052C1778.07 225.052 1786.69 173.351 1786.69 140.657C1786.69 108.217 1777.06 58.2904 1734.23 58.2904C1699 58.2904 1685.57 92.7577 1683.04 122.917Z" fill="#C0A879"/>
<path d="M1869.58 224.038C1859.45 221.757 1849.05 217.702 1838.16 212.126L1848.55 174.871H1849.81C1853.11 205.03 1874.9 225.305 1905.57 225.305C1930.91 225.305 1945.87 213.9 1951.95 201.989C1954.74 196.16 1956.26 190.584 1956.26 185.262C1956.26 183.995 1956 181.461 1955.75 177.406C1955.24 173.604 1952.96 169.802 1948.66 166.001C1932.94 152.315 1884.28 153.582 1859.19 134.068C1849.05 126.211 1844.49 115.314 1844.49 104.416C1844.49 103.656 1843.23 97.3196 1849.31 85.915C1852.1 80.3394 1856.4 75.2706 1862.23 70.7088C1873.64 61.8385 1891.12 55.756 1914.69 55.756C1939.53 55.756 1955.24 60.5713 1972.73 66.6538L1963.35 103.402H1961.33C1958.03 77.0447 1941.56 58.037 1916.72 58.037C1894.17 58.037 1879.72 67.6675 1873.89 77.5515C1871.1 82.3669 1869.84 87.1821 1869.84 91.744C1869.84 93.0112 1870.09 95.2921 1870.6 98.8402C1871.1 102.388 1873.89 105.936 1878.71 109.485C1895.69 121.649 1946.37 122.917 1968.93 139.897C1979.32 148.007 1984.9 160.172 1984.9 172.337C1984.9 173.097 1986.16 179.94 1979.83 192.865C1976.53 199.454 1971.72 205.284 1965.13 210.352C1951.7 220.743 1931.17 227.839 1902.78 227.839C1890.87 227.839 1879.72 226.572 1869.58 224.038Z" fill="#C0A879"/>
</svg>
